<svg width="209" height="69" viewBox="0 0 209 69" fill="none" xmlns="http://www.w3.org/2000/svg">
<path d="M35.648 56H26.24L24.32 46.336L25.088 46.976H10.688L11.456 46.336L9.28 56H0.448L8.768 22.72C9.28 20.7147 9.856 19.1573 10.496 18.048C11.136 16.896 12.032 16.0853 13.184 15.616C14.336 15.1467 15.8933 14.9547 17.856 15.04L27.072 15.36L35.648 56ZM16.512 24.384L13.056 39.488L12.544 38.848H23.488L22.976 39.488L19.84 23.488H17.408C17.1093 23.488 16.896 23.552 16.768 23.68C16.6827 23.808 16.5973 24.0427 16.512 24.384ZM62.6895 41.6V15.36H70.8175V56H64.0975L46.2415 29.632H47.5855V56H39.4575V15.36H46.1135L63.9695 41.6H62.6895ZM88.5845 56H79.1125V15.36H88.5845V56ZM128.511 15.36C130.602 15.36 132.074 15.7867 132.927 16.64C133.823 17.4933 134.271 18.88 134.271 20.8V56H125.183V27.392H126.463L117.759 44.416H112.127L103.935 28.032H105.215V56H96.895V15.36H101.951C103.444 15.36 104.468 15.5733 105.023 16C105.578 16.384 106.111 17.0453 106.623 17.984L116.543 36.48H114.815L125.695 15.36H128.511Z" fill="white"/>
<path d="M148.564 33.3516C147.158 33.3516 145.887 33.123 144.75 32.666C143.625 32.1973 142.664 31.5469 141.867 30.7148C141.082 29.8828 140.479 28.9043 140.057 27.7793C139.635 26.6543 139.424 25.4414 139.424 24.1406V23.4375C139.424 21.9492 139.641 20.6016 140.074 19.3945C140.508 18.1875 141.111 17.1562 141.885 16.3008C142.658 15.4336 143.572 14.7715 144.627 14.3145C145.682 13.8574 146.824 13.6289 148.055 13.6289C149.414 13.6289 150.604 13.8574 151.623 14.3145C152.643 14.7715 153.486 15.416 154.154 16.248C154.834 17.0684 155.338 18.0469 155.666 19.1836C156.006 20.3203 156.176 21.5742 156.176 22.9453V24.7559H141.48V21.7148H151.992V21.3809C151.969 20.6191 151.816 19.9043 151.535 19.2363C151.266 18.5684 150.85 18.0293 150.287 17.6191C149.725 17.209 148.975 17.0039 148.037 17.0039C147.334 17.0039 146.707 17.1562 146.156 17.4609C145.617 17.7539 145.166 18.1816 144.803 18.7441C144.439 19.3066 144.158 19.9863 143.959 20.7832C143.771 21.5684 143.678 22.4531 143.678 23.4375V24.1406C143.678 24.9727 143.789 25.7461 144.012 26.4609C144.246 27.1641 144.586 27.7793 145.031 28.3066C145.477 28.834 146.016 29.25 146.648 29.5547C147.281 29.8477 148.002 29.9941 148.811 29.9941C149.83 29.9941 150.738 29.7891 151.535 29.3789C152.332 28.9688 153.023 28.3887 153.609 27.6387L155.842 29.8008C155.432 30.3984 154.898 30.9727 154.242 31.5234C153.586 32.0625 152.783 32.502 151.834 32.8418C150.896 33.1816 149.807 33.3516 148.564 33.3516Z" fill="white"/>
<mask id="path-3-outside-1_1_505" maskUnits="userSpaceOnUse" x="138" y="31" width="70" height="30" fill="black">
<rect fill="white" x="138" y="31" width="70" height="30"/>
<path d="M150.902 55.1855V46.1152C150.902 45.4355 150.779 44.8496 150.533 44.3574C150.287 43.8652 149.912 43.4844 149.408 43.2148C148.916 42.9453 148.295 42.8105 147.545 42.8105C146.854 42.8105 146.256 42.9277 145.752 43.1621C145.248 43.3965 144.855 43.7129 144.574 44.1113C144.293 44.5098 144.152 44.9609 144.152 45.4648H139.934C139.934 44.7148 140.115 43.9883 140.479 43.2852C140.842 42.582 141.369 41.9551 142.061 41.4043C142.752 40.8535 143.578 40.4199 144.539 40.1035C145.5 39.7871 146.578 39.6289 147.773 39.6289C149.203 39.6289 150.469 39.8691 151.57 40.3496C152.684 40.8301 153.557 41.5566 154.189 42.5293C154.834 43.4902 155.156 44.6973 155.156 46.1504V54.6055C155.156 55.4727 155.215 56.252 155.332 56.9434C155.461 57.623 155.643 58.2148 155.877 58.7188V59H151.535C151.336 58.543 151.178 57.9629 151.061 57.2598C150.955 56.5449 150.902 55.8535 150.902 55.1855ZM151.518 47.4336L151.553 50.0527H148.512C147.727 50.0527 147.035 50.1289 146.438 50.2812C145.84 50.4219 145.342 50.6328 144.943 50.9141C144.545 51.1953 144.246 51.5352 144.047 51.9336C143.848 52.332 143.748 52.7832 143.748 53.2871C143.748 53.791 143.865 54.2539 144.1 54.6758C144.334 55.0859 144.674 55.4082 145.119 55.6426C145.576 55.877 146.127 55.9941 146.771 55.9941C147.639 55.9941 148.395 55.8184 149.039 55.4668C149.695 55.1035 150.211 54.6641 150.586 54.1484C150.961 53.6211 151.16 53.123 151.184 52.6543L152.555 54.5352C152.414 55.0156 152.174 55.5312 151.834 56.082C151.494 56.6328 151.049 57.1602 150.498 57.6641C149.959 58.1562 149.309 58.5605 148.547 58.877C147.797 59.1934 146.93 59.3516 145.945 59.3516C144.703 59.3516 143.596 59.1055 142.623 58.6133C141.65 58.1094 140.889 57.4355 140.338 56.5918C139.787 55.7363 139.512 54.7695 139.512 53.6914C139.512 52.6836 139.699 51.793 140.074 51.0195C140.461 50.2344 141.023 49.5781 141.762 49.0508C142.512 48.5234 143.426 48.125 144.504 47.8555C145.582 47.5742 146.812 47.4336 148.195 47.4336H151.518ZM168.305 39.9805V43.0742H157.582V39.9805H168.305ZM160.676 35.3223H164.912V53.7441C164.912 54.3301 164.994 54.7812 165.158 55.0977C165.334 55.4023 165.574 55.6074 165.879 55.7129C166.184 55.8184 166.541 55.8711 166.951 55.8711C167.244 55.8711 167.525 55.8535 167.795 55.8184C168.064 55.7832 168.281 55.748 168.445 55.7129L168.463 58.9473C168.111 59.0527 167.701 59.1465 167.232 59.2285C166.775 59.3105 166.248 59.3516 165.65 59.3516C164.678 59.3516 163.816 59.1816 163.066 58.8418C162.316 58.4902 161.73 57.9219 161.309 57.1367C160.887 56.3516 160.676 55.3086 160.676 54.0078V35.3223ZM179.344 55.9766C180.035 55.9766 180.656 55.8418 181.207 55.5723C181.77 55.291 182.221 54.9043 182.561 54.4121C182.912 53.9199 183.105 53.3516 183.141 52.707H187.131C187.107 53.9375 186.744 55.0566 186.041 56.0645C185.338 57.0723 184.406 57.875 183.246 58.4727C182.086 59.0586 180.803 59.3516 179.396 59.3516C177.943 59.3516 176.678 59.1055 175.6 58.6133C174.521 58.1094 173.625 57.418 172.91 56.5391C172.195 55.6602 171.656 54.6465 171.293 53.498C170.941 52.3496 170.766 51.1191 170.766 49.8066V49.1914C170.766 47.8789 170.941 46.6484 171.293 45.5C171.656 44.3398 172.195 43.3203 172.91 42.4414C173.625 41.5625 174.521 40.877 175.6 40.3848C176.678 39.8809 177.938 39.6289 179.379 39.6289C180.902 39.6289 182.238 39.9336 183.387 40.543C184.535 41.1406 185.438 41.9785 186.094 43.0566C186.762 44.123 187.107 45.3652 187.131 46.7832H183.141C183.105 46.0801 182.93 45.4473 182.613 44.8848C182.309 44.3105 181.875 43.8535 181.312 43.5137C180.762 43.1738 180.1 43.0039 179.326 43.0039C178.471 43.0039 177.762 43.1797 177.199 43.5312C176.637 43.8711 176.197 44.3398 175.881 44.9375C175.564 45.5234 175.336 46.1855 175.195 46.9238C175.066 47.6504 175.002 48.4062 175.002 49.1914V49.8066C175.002 50.5918 175.066 51.3535 175.195 52.0918C175.324 52.8301 175.547 53.4922 175.863 54.0781C176.191 54.6523 176.637 55.1152 177.199 55.4668C177.762 55.8066 178.477 55.9766 179.344 55.9766ZM194.566 32V59H190.348V32H194.566ZM193.828 48.7871L192.457 48.7695C192.469 47.457 192.65 46.2441 193.002 45.1309C193.365 44.0176 193.869 43.0508 194.514 42.2305C195.17 41.3984 195.955 40.7598 196.869 40.3145C197.783 39.8574 198.797 39.6289 199.91 39.6289C200.848 39.6289 201.691 39.7578 202.441 40.0156C203.203 40.2734 203.859 40.6895 204.41 41.2637C204.961 41.8262 205.377 42.5645 205.658 43.4785C205.951 44.3809 206.098 45.4824 206.098 46.7832V59H201.844V46.748C201.844 45.834 201.709 45.1074 201.439 44.5684C201.182 44.0293 200.801 43.6426 200.297 43.4082C199.793 43.1621 199.178 43.0391 198.451 43.0391C197.689 43.0391 197.016 43.1914 196.43 43.4961C195.855 43.8008 195.375 44.2168 194.988 44.7441C194.602 45.2715 194.309 45.8809 194.109 46.5723C193.922 47.2637 193.828 48.002 193.828 48.7871Z"/>
</mask>
<path d="M150.902 55.1855V46.1152C150.902 45.4355 150.779 44.8496 150.533 44.3574C150.287 43.8652 149.912 43.4844 149.408 43.2148C148.916 42.9453 148.295 42.8105 147.545 42.8105C146.854 42.8105 146.256 42.9277 145.752 43.1621C145.248 43.3965 144.855 43.7129 144.574 44.1113C144.293 44.5098 144.152 44.9609 144.152 45.4648H139.934C139.934 44.7148 140.115 43.9883 140.479 43.2852C140.842 42.582 141.369 41.9551 142.061 41.4043C142.752 40.8535 143.578 40.4199 144.539 40.1035C145.5 39.7871 146.578 39.6289 147.773 39.6289C149.203 39.6289 150.469 39.8691 151.57 40.3496C152.684 40.8301 153.557 41.5566 154.189 42.5293C154.834 43.4902 155.156 44.6973 155.156 46.1504V54.6055C155.156 55.4727 155.215 56.252 155.332 56.9434C155.461 57.623 155.643 58.2148 155.877 58.7188V59H151.535C151.336 58.543 151.178 57.9629 151.061 57.2598C150.955 56.5449 150.902 55.8535 150.902 55.1855ZM151.518 47.4336L151.553 50.0527H148.512C147.727 50.0527 147.035 50.1289 146.438 50.2812C145.84 50.4219 145.342 50.6328 144.943 50.9141C144.545 51.1953 144.246 51.5352 144.047 51.9336C143.848 52.332 143.748 52.7832 143.748 53.2871C143.748 53.791 143.865 54.2539 144.1 54.6758C144.334 55.0859 144.674 55.4082 145.119 55.6426C145.576 55.877 146.127 55.9941 146.771 55.9941C147.639 55.9941 148.395 55.8184 149.039 55.4668C149.695 55.1035 150.211 54.6641 150.586 54.1484C150.961 53.6211 151.16 53.123 151.184 52.6543L152.555 54.5352C152.414 55.0156 152.174 55.5312 151.834 56.082C151.494 56.6328 151.049 57.1602 150.498 57.6641C149.959 58.1562 149.309 58.5605 148.547 58.877C147.797 59.1934 146.93 59.3516 145.945 59.3516C144.703 59.3516 143.596 59.1055 142.623 58.6133C141.65 58.1094 140.889 57.4355 140.338 56.5918C139.787 55.7363 139.512 54.7695 139.512 53.6914C139.512 52.6836 139.699 51.793 140.074 51.0195C140.461 50.2344 141.023 49.5781 141.762 49.0508C142.512 48.5234 143.426 48.125 144.504 47.8555C145.582 47.5742 146.812 47.4336 148.195 47.4336H151.518ZM168.305 39.9805V43.0742H157.582V39.9805H168.305ZM160.676 35.3223H164.912V53.7441C164.912 54.3301 164.994 54.7812 165.158 55.0977C165.334 55.4023 165.574 55.6074 165.879 55.7129C166.184 55.8184 166.541 55.8711 166.951 55.8711C167.244 55.8711 167.525 55.8535 167.795 55.8184C168.064 55.7832 168.281 55.748 168.445 55.7129L168.463 58.9473C168.111 59.0527 167.701 59.1465 167.232 59.2285C166.775 59.3105 166.248 59.3516 165.65 59.3516C164.678 59.3516 163.816 59.1816 163.066 58.8418C162.316 58.4902 161.73 57.9219 161.309 57.1367C160.887 56.3516 160.676 55.3086 160.676 54.0078V35.3223ZM179.344 55.9766C180.035 55.9766 180.656 55.8418 181.207 55.5723C181.77 55.291 182.221 54.9043 182.561 54.4121C182.912 53.9199 183.105 53.3516 183.141 52.707H187.131C187.107 53.9375 186.744 55.0566 186.041 56.0645C185.338 57.0723 184.406 57.875 183.246 58.4727C182.086 59.0586 180.803 59.3516 179.396 59.3516C177.943 59.3516 176.678 59.1055 175.6 58.6133C174.521 58.1094 173.625 57.418 172.91 56.5391C172.195 55.6602 171.656 54.6465 171.293 53.498C170.941 52.3496 170.766 51.1191 170.766 49.8066V49.1914C170.766 47.8789 170.941 46.6484 171.293 45.5C171.656 44.3398 172.195 43.3203 172.91 42.4414C173.625 41.5625 174.521 40.877 175.6 40.3848C176.678 39.8809 177.938 39.6289 179.379 39.6289C180.902 39.6289 182.238 39.9336 183.387 40.543C184.535 41.1406 185.438 41.9785 186.094 43.0566C186.762 44.123 187.107 45.3652 187.131 46.7832H183.141C183.105 46.0801 182.93 45.4473 182.613 44.8848C182.309 44.3105 181.875 43.8535 181.312 43.5137C180.762 43.1738 180.1 43.0039 179.326 43.0039C178.471 43.0039 177.762 43.1797 177.199 43.5312C176.637 43.8711 176.197 44.3398 175.881 44.9375C175.564 45.5234 175.336 46.1855 175.195 46.9238C175.066 47.6504 175.002 48.4062 175.002 49.1914V49.8066C175.002 50.5918 175.066 51.3535 175.195 52.0918C175.324 52.8301 175.547 53.4922 175.863 54.0781C176.191 54.6523 176.637 55.1152 177.199 55.4668C177.762 55.8066 178.477 55.9766 179.344 55.9766ZM194.566 32V59H190.348V32H194.566ZM193.828 48.7871L192.457 48.7695C192.469 47.457 192.65 46.2441 193.002 45.1309C193.365 44.0176 193.869 43.0508 194.514 42.2305C195.17 41.3984 195.955 40.7598 196.869 40.3145C197.783 39.8574 198.797 39.6289 199.91 39.6289C200.848 39.6289 201.691 39.7578 202.441 40.0156C203.203 40.2734 203.859 40.6895 204.41 41.2637C204.961 41.8262 205.377 42.5645 205.658 43.4785C205.951 44.3809 206.098 45.4824 206.098 46.7832V59H201.844V46.748C201.844 45.834 201.709 45.1074 201.439 44.5684C201.182 44.0293 200.801 43.6426 200.297 43.4082C199.793 43.1621 199.178 43.0391 198.451 43.0391C197.689 43.0391 197.016 43.1914 196.43 43.4961C195.855 43.8008 195.375 44.2168 194.988 44.7441C194.602 45.2715 194.309 45.8809 194.109 46.5723C193.922 47.2637 193.828 48.002 193.828 48.7871Z" fill="#7B61FF"/>
<path d="M149.408 43.2148L148.928 44.092L148.937 44.0966L149.408 43.2148ZM144.152 45.4648V46.4648H145.152V45.4648H144.152ZM139.934 45.4648H138.934V46.4648H139.934V45.4648ZM151.57 40.3496L151.171 41.2662L151.174 41.2678L151.57 40.3496ZM154.189 42.5293L153.351 43.0747L153.359 43.0863L154.189 42.5293ZM155.332 56.9434L154.346 57.1105L154.348 57.1201L154.35 57.1297L155.332 56.9434ZM155.877 58.7188H156.877V58.4976L156.784 58.297L155.877 58.7188ZM155.877 59V60H156.877V59H155.877ZM151.535 59L150.618 59.3996L150.88 60H151.535V59ZM151.061 57.2598L150.071 57.4057L150.073 57.415L150.074 57.4242L151.061 57.2598ZM151.518 47.4336L152.517 47.4202L152.504 46.4336H151.518V47.4336ZM151.553 50.0527V51.0527H152.566L152.553 50.0393L151.553 50.0527ZM146.438 50.2812L146.667 51.2547L146.676 51.2525L146.685 51.2503L146.438 50.2812ZM144.1 54.6758L143.225 55.1615L143.231 55.1719L144.1 54.6758ZM145.119 55.6426L144.653 56.5275L144.663 56.5324L145.119 55.6426ZM149.039 55.4668L149.518 56.3447L149.523 56.3417L149.039 55.4668ZM150.586 54.1484L151.395 54.7366L151.401 54.728L150.586 54.1484ZM151.184 52.6543L151.992 52.0652L150.326 49.7803L150.185 52.6044L151.184 52.6543ZM152.555 54.5352L153.514 54.8161L153.653 54.3438L153.363 53.9461L152.555 54.5352ZM150.498 57.6641L151.172 58.4025L151.173 58.4019L150.498 57.6641ZM148.547 58.877L148.163 57.9534L148.158 57.9556L148.547 58.877ZM142.623 58.6133L142.163 59.5012L142.172 59.5055L142.623 58.6133ZM140.338 56.5918L139.497 57.1331L139.501 57.1384L140.338 56.5918ZM140.074 51.0195L139.177 50.5777L139.174 50.5833L140.074 51.0195ZM141.762 49.0508L141.187 48.2327L141.18 48.237L141.762 49.0508ZM144.504 47.8555L144.746 48.8257L144.756 48.8231L144.504 47.8555ZM151.902 55.1855V46.1152H149.902V55.1855H151.902ZM151.902 46.1152C151.902 45.3161 151.758 44.5701 151.428 43.9102L149.639 44.8046C149.801 45.1291 149.902 45.555 149.902 46.1152H151.902ZM151.428 43.9102C151.085 43.2255 150.559 42.6962 149.88 42.3331L148.937 44.0966C149.265 44.2725 149.489 44.505 149.639 44.8046L151.428 43.9102ZM149.889 42.3377C149.208 41.965 148.408 41.8105 147.545 41.8105V43.8105C148.181 43.8105 148.624 43.9256 148.928 44.0919L149.889 42.3377ZM147.545 41.8105C146.742 41.8105 145.994 41.9465 145.33 42.2554L146.174 44.0688C146.517 43.909 146.965 43.8105 147.545 43.8105V41.8105ZM145.33 42.2554C144.69 42.5529 144.153 42.9746 143.757 43.5346L145.391 44.688C145.558 44.4511 145.806 44.24 146.174 44.0688L145.33 42.2554ZM143.757 43.5346C143.353 44.1077 143.152 44.7617 143.152 45.4648H145.152C145.152 45.1601 145.233 44.9119 145.391 44.688L143.757 43.5346ZM144.152 44.4648H139.934V46.4648H144.152V44.4648ZM140.934 45.4648C140.934 44.8834 141.073 44.3135 141.367 43.7442L139.59 42.8261C139.158 43.6631 138.934 44.5463 138.934 45.4648H140.934ZM141.367 43.7442C141.658 43.1802 142.09 42.6597 142.684 42.1865L141.437 40.6221C140.649 41.2504 140.025 41.9839 139.59 42.8261L141.367 43.7442ZM142.684 42.1865C143.27 41.7194 143.987 41.338 144.852 41.0534L144.226 39.1537C143.169 39.5019 142.234 39.9877 141.437 40.6221L142.684 42.1865ZM144.852 41.0534C145.695 40.7756 146.666 40.6289 147.773 40.6289V38.6289C146.491 38.6289 145.305 38.7986 144.226 39.1537L144.852 41.0534ZM147.773 40.6289C149.091 40.6289 150.217 40.8502 151.171 41.2662L151.97 39.433C150.721 38.8881 149.315 38.6289 147.773 38.6289V40.6289ZM151.174 41.2678C152.115 41.6739 152.831 42.2747 153.351 43.0746L155.028 41.984C154.282 40.8386 153.252 39.9863 151.967 39.4315L151.174 41.2678ZM153.359 43.0863C153.868 43.8449 154.156 44.8448 154.156 46.1504H156.156C156.156 44.5497 155.8 43.1356 155.02 41.9723L153.359 43.0863ZM154.156 46.1504V54.6055H156.156V46.1504H154.156ZM154.156 54.6055C154.156 55.5161 154.218 56.3527 154.346 57.1105L156.318 56.7763C156.212 56.1512 156.156 55.4292 156.156 54.6055H154.156ZM154.35 57.1297C154.49 57.8718 154.694 58.5459 154.97 59.1405L156.784 58.297C156.591 57.8838 156.432 57.3743 156.315 56.757L154.35 57.1297ZM154.877 58.7188V59H156.877V58.7188H154.877ZM155.877 58H151.535V60H155.877V58ZM152.452 58.6004C152.296 58.2432 152.156 57.7491 152.047 57.0954L150.074 57.4242C150.2 58.1767 150.376 58.8428 150.618 59.3996L152.452 58.6004ZM152.05 57.1138C151.951 56.4434 151.902 55.8009 151.902 55.1855H149.902C149.902 55.9061 149.959 56.6464 150.071 57.4057L152.05 57.1138ZM150.518 47.447L150.553 50.0662L152.553 50.0393L152.517 47.4202L150.518 47.447ZM151.553 49.0527H148.512V51.0527H151.553V49.0527ZM148.512 49.0527C147.665 49.0527 146.887 49.1346 146.19 49.3122L146.685 51.2503C147.183 51.1232 147.788 51.0527 148.512 51.0527V49.0527ZM146.208 49.3078C145.517 49.4705 144.893 49.7255 144.367 50.0971L145.52 51.731C145.79 51.5402 146.163 51.3732 146.667 51.2547L146.208 49.3078ZM144.367 50.0971C143.847 50.4643 143.432 50.9267 143.152 51.4864L144.941 52.3808C145.06 52.1436 145.243 51.9264 145.52 51.731L144.367 50.0971ZM143.152 51.4864C142.875 52.0409 142.748 52.6485 142.748 53.2871H144.748C144.748 52.9179 144.82 52.6231 144.941 52.3808L143.152 51.4864ZM142.748 53.2871C142.748 53.9532 142.905 54.5843 143.225 55.1614L144.974 54.1901C144.826 53.9235 144.748 53.6289 144.748 53.2871H142.748ZM143.231 55.1719C143.566 55.7583 144.051 56.2105 144.653 56.5275L145.585 54.7577C145.297 54.6059 145.102 54.4136 144.968 54.1796L143.231 55.1719ZM144.663 56.5324C145.292 56.8553 146.008 56.9941 146.771 56.9941V54.9941C146.246 54.9941 145.86 54.8986 145.575 54.7528L144.663 56.5324ZM146.771 56.9941C147.776 56.9941 148.702 56.7897 149.518 56.3447L148.56 54.5889C148.087 54.847 147.502 54.9941 146.771 54.9941V56.9941ZM149.523 56.3417C150.285 55.92 150.92 55.3894 151.395 54.7366L149.777 53.5603C149.502 53.9387 149.106 54.287 148.555 54.5919L149.523 56.3417ZM151.401 54.728C151.846 54.102 152.146 53.4227 152.182 52.7042L150.185 52.6044C150.174 52.8234 150.076 53.1402 149.771 53.5689L151.401 54.728ZM150.376 53.2434L151.747 55.1242L153.363 53.9461L151.992 52.0652L150.376 53.2434ZM151.595 54.2543C151.486 54.628 151.289 55.0613 150.983 55.5569L152.685 56.6071C153.059 56.0012 153.343 55.4032 153.514 54.8161L151.595 54.2543ZM150.983 55.5569C150.698 56.018 150.316 56.4754 149.823 56.9263L151.173 58.4019C151.782 57.8449 152.29 57.2476 152.685 56.6071L150.983 55.5569ZM149.824 56.9256C149.381 57.3303 148.832 57.6757 148.163 57.9535L148.93 59.8004C149.785 59.4454 150.537 58.9822 151.172 58.4025L149.824 56.9256ZM148.158 57.9556C147.554 58.2104 146.823 58.3516 145.945 58.3516V60.3516C147.036 60.3516 148.04 60.1763 148.936 59.7983L148.158 57.9556ZM145.945 58.3516C144.838 58.3516 143.889 58.1331 143.075 57.721L142.172 59.5055C143.303 60.0779 144.568 60.3516 145.945 60.3516V58.3516ZM143.083 57.7254C142.25 57.2937 141.624 56.7321 141.175 56.0452L139.501 57.1384C140.154 58.139 141.051 58.9251 142.163 59.5012L143.083 57.7254ZM141.179 56.0505C140.738 55.3662 140.512 54.5896 140.512 53.6914H138.512C138.512 54.9495 138.836 56.1064 139.497 57.1331L141.179 56.0505ZM140.512 53.6914C140.512 52.8088 140.675 52.0717 140.974 51.4558L139.174 50.5833C138.723 51.5142 138.512 52.5584 138.512 53.6914H140.512ZM140.971 51.4614C141.282 50.8299 141.734 50.2995 142.343 49.8645L141.18 48.237C140.313 48.8567 139.64 49.6389 139.177 50.5777L140.971 51.4614ZM142.337 49.8688C142.967 49.4254 143.763 49.0715 144.746 48.8256L144.261 46.8853C143.089 47.1785 142.056 47.6214 141.187 48.2328L142.337 49.8688ZM144.756 48.8231C145.735 48.5678 146.878 48.4336 148.195 48.4336V46.4336C146.747 46.4336 145.429 46.5807 144.251 46.8879L144.756 48.8231ZM148.195 48.4336H151.518V46.4336H148.195V48.4336ZM168.305 39.9805H169.305V38.9805H168.305V39.9805ZM168.305 43.0742V44.0742H169.305V43.0742H168.305ZM157.582 43.0742H156.582V44.0742H157.582V43.0742ZM157.582 39.9805V38.9805H156.582V39.9805H157.582ZM160.676 35.3223V34.3223H159.676V35.3223H160.676ZM164.912 35.3223H165.912V34.3223H164.912V35.3223ZM165.158 55.0977L164.27 55.558L164.281 55.5779L164.292 55.5974L165.158 55.0977ZM168.445 55.7129L169.445 55.7075L169.439 54.4773L168.236 54.7351L168.445 55.7129ZM168.463 58.9473L168.75 59.9051L169.467 59.6901L169.463 58.9418L168.463 58.9473ZM167.232 59.2285L167.06 58.2435L167.056 58.2442L167.232 59.2285ZM163.066 58.8418L162.642 59.7473L162.654 59.7527L163.066 58.8418ZM167.305 39.9805V43.0742H169.305V39.9805H167.305ZM168.305 42.0742H157.582V44.0742H168.305V42.0742ZM158.582 43.0742V39.9805H156.582V43.0742H158.582ZM157.582 40.9805H168.305V38.9805H157.582V40.9805ZM160.676 36.3223H164.912V34.3223H160.676V36.3223ZM163.912 35.3223V53.7441H165.912V35.3223H163.912ZM163.912 53.7441C163.912 54.399 164 55.0359 164.27 55.558L166.046 54.6373C165.989 54.5266 165.912 54.2611 165.912 53.7441H163.912ZM164.292 55.5974C164.576 56.0901 164.998 56.4663 165.552 56.6579L166.206 54.7679C166.15 54.7485 166.092 54.7146 166.024 54.5979L164.292 55.5974ZM165.552 56.6579C165.986 56.8081 166.459 56.8711 166.951 56.8711V54.8711C166.623 54.8711 166.381 54.8286 166.206 54.7679L165.552 56.6579ZM166.951 56.8711C167.284 56.8711 167.609 56.8511 167.924 56.81L167.666 54.8268C167.442 54.8559 167.204 54.8711 166.951 54.8711V56.8711ZM167.924 56.81C168.206 56.7732 168.453 56.7339 168.655 56.6907L168.236 54.7351C168.109 54.7622 167.922 54.7933 167.666 54.8268L167.924 56.81ZM167.445 55.7183L167.463 58.9527L169.463 58.9418L169.445 55.7075L167.445 55.7183ZM168.176 57.9894C167.871 58.0808 167.501 58.1664 167.06 58.2435L167.405 60.2135C167.902 60.1266 168.352 60.0246 168.75 59.9051L168.176 57.9894ZM167.056 58.2442C166.671 58.3133 166.205 58.3516 165.65 58.3516V60.3516C166.291 60.3516 166.88 60.3078 167.409 60.2128L167.056 58.2442ZM165.65 58.3516C164.795 58.3516 164.078 58.2024 163.479 57.9309L162.654 59.7527C163.555 60.1609 164.561 60.3516 165.65 60.3516V58.3516ZM163.491 57.9363C162.951 57.6831 162.518 57.2745 162.189 56.6634L160.428 57.61C160.943 58.5693 161.682 59.2974 162.642 59.7473L163.491 57.9363ZM162.189 56.6634C161.874 56.0753 161.676 55.214 161.676 54.0078H159.676C159.676 55.4032 159.9 56.6278 160.428 57.61L162.189 56.6634ZM161.676 54.0078V35.3223H159.676V54.0078H161.676ZM181.207 55.5723L181.647 56.4705L181.654 56.4667L181.207 55.5723ZM182.561 54.4121L181.747 53.8309L181.742 53.8374L181.738 53.8439L182.561 54.4121ZM183.141 52.707V51.707H182.194L182.142 52.6526L183.141 52.707ZM187.131 52.707L188.131 52.7261L188.15 51.707H187.131V52.707ZM183.246 58.4727L183.697 59.3653L183.704 59.3616L183.246 58.4727ZM175.6 58.6133L175.176 59.5192L175.184 59.523L175.6 58.6133ZM171.293 53.498L170.337 53.7908L170.34 53.7996L171.293 53.498ZM171.293 45.5L170.339 45.2012L170.337 45.2073L171.293 45.5ZM175.6 40.3848L176.015 41.2945L176.023 41.2907L175.6 40.3848ZM183.387 40.543L182.918 41.4263L182.925 41.43L183.387 40.543ZM186.094 43.0566L185.239 43.5766L185.246 43.5875L186.094 43.0566ZM187.131 46.7832V47.7832H188.148L188.131 46.7667L187.131 46.7832ZM183.141 46.7832L182.142 46.8331L182.189 47.7832H183.141V46.7832ZM182.613 44.8848L181.73 45.3535L181.736 45.3643L181.742 45.375L182.613 44.8848ZM181.312 43.5137L180.787 44.3647L180.795 44.3696L181.312 43.5137ZM177.199 43.5312L177.716 44.3872L177.723 44.3833L177.729 44.3792L177.199 43.5312ZM175.881 44.9375L176.761 45.4127L176.765 45.4054L175.881 44.9375ZM175.195 46.9238L174.213 46.7367L174.211 46.7491L175.195 46.9238ZM175.863 54.0781L174.983 54.5533L174.989 54.5638L174.995 54.5743L175.863 54.0781ZM177.199 55.4668L176.669 56.3148L176.676 56.3188L176.682 56.3227L177.199 55.4668ZM179.344 56.9766C180.168 56.9766 180.942 56.8151 181.647 56.4705L180.767 54.674C180.37 54.8685 179.902 54.9766 179.344 54.9766V56.9766ZM181.654 56.4667C182.359 56.1141 182.943 55.6184 183.383 54.9803L181.738 53.8439C181.499 54.1902 181.18 54.4679 180.76 54.6778L181.654 56.4667ZM183.374 54.9933C183.844 54.3362 184.094 53.5823 184.139 52.7615L182.142 52.6526C182.117 53.1208 181.981 53.5037 181.747 53.8309L183.374 54.9933ZM183.141 53.707H187.131V51.707H183.141V53.707ZM186.131 52.688C186.111 53.7207 185.81 54.6472 185.221 55.4923L186.861 56.6366C187.678 55.4661 188.103 54.1543 188.131 52.7261L186.131 52.688ZM185.221 55.4923C184.617 56.3583 183.813 57.0558 182.788 57.5837L183.704 59.3616C185 58.6942 186.059 57.7862 186.861 56.6366L185.221 55.4923ZM182.795 57.58C181.786 58.0897 180.659 58.3516 179.396 58.3516V60.3516C180.946 60.3516 182.386 60.0275 183.697 59.3653L182.795 57.58ZM179.396 58.3516C178.055 58.3516 176.937 58.1244 176.015 57.7036L175.184 59.523C176.419 60.0865 177.832 60.3516 179.396 60.3516V58.3516ZM176.023 57.7073C175.075 57.264 174.301 56.664 173.686 55.9081L172.134 57.17C172.949 58.1719 173.968 58.9547 175.176 59.5192L176.023 57.7073ZM173.686 55.9081C173.055 55.1329 172.574 54.2326 172.246 53.1964L170.34 53.7996C170.738 55.0604 171.335 56.1874 172.134 57.17L173.686 55.9081ZM172.249 53.2053C171.929 52.1601 171.766 51.0291 171.766 49.8066H169.766C169.766 51.2092 169.954 52.5391 170.337 53.7908L172.249 53.2053ZM171.766 49.8066V49.1914H169.766V49.8066H171.766ZM171.766 49.1914C171.766 47.969 171.929 46.8379 172.249 45.7927L170.337 45.2073C169.954 46.4589 169.766 47.7888 169.766 49.1914H171.766ZM172.247 45.7988C172.575 44.7508 173.057 43.8459 173.686 43.0724L172.134 41.8104C171.334 42.7947 170.737 43.9289 170.339 45.2012L172.247 45.7988ZM173.686 43.0724C174.299 42.3184 175.07 41.7258 176.015 41.2945L175.184 39.4751C173.973 40.0282 172.951 40.8066 172.134 41.8104L173.686 43.0724ZM176.023 41.2907C176.944 40.8604 178.053 40.6289 179.379 40.6289V38.6289C177.822 38.6289 176.412 38.9013 175.176 39.4788L176.023 41.2907ZM179.379 40.6289C180.767 40.6289 181.937 40.9057 182.918 41.4263L183.855 39.6596C182.54 38.9615 181.038 38.6289 179.379 38.6289V40.6289ZM182.925 41.43C183.916 41.9457 184.681 42.6585 185.24 43.5766L186.948 42.5367C186.194 41.2985 185.154 40.3355 183.848 39.6559L182.925 41.43ZM185.246 43.5875C185.806 44.4806 186.11 45.5402 186.131 46.7997L188.131 46.7667C188.105 45.1903 187.718 43.7655 186.941 42.5258L185.246 43.5875ZM187.131 45.7832H183.141V47.7832H187.131V45.7832ZM184.139 46.7333C184.097 45.8898 183.884 45.1039 183.485 44.3945L181.742 45.375C181.975 45.7906 182.114 46.2704 182.142 46.8331L184.139 46.7333ZM183.497 44.416C183.106 43.6802 182.545 43.0901 181.83 42.6578L180.795 44.3696C181.205 44.617 181.511 44.9409 181.73 45.3535L183.497 44.416ZM181.838 42.6626C181.101 42.2079 180.249 42.0039 179.326 42.0039V44.0039C179.951 44.0039 180.423 44.1398 180.787 44.3647L181.838 42.6626ZM179.326 42.0039C178.337 42.0039 177.431 42.2074 176.669 42.6833L177.729 44.3792C178.093 44.152 178.605 44.0039 179.326 44.0039V42.0039ZM176.682 42.6753C175.96 43.1117 175.396 43.7166 174.997 44.4696L176.765 45.4054C176.999 44.963 177.314 44.6305 177.716 44.3872L176.682 42.6753ZM175.001 44.4624C174.63 45.1492 174.37 45.9105 174.213 46.7367L176.178 47.1109C176.302 46.4606 176.499 45.8976 176.761 45.4126L175.001 44.4624ZM174.211 46.7491C174.071 47.5369 174.002 48.3514 174.002 49.1914H176.002C176.002 48.4611 176.062 47.7639 176.18 47.0985L174.211 46.7491ZM174.002 49.1914V49.8066H176.002V49.1914H174.002ZM174.002 49.8066C174.002 50.6467 174.071 51.4661 174.21 52.2638L176.18 51.9198C176.062 51.2409 176.002 50.5369 176.002 49.8066H174.002ZM174.21 52.2638C174.355 53.095 174.61 53.8615 174.983 54.5533L176.743 53.603C176.484 53.1228 176.293 52.5652 176.18 51.9198L174.21 52.2638ZM174.995 54.5743C175.405 55.2924 175.967 55.876 176.669 56.3148L177.729 54.6188C177.306 54.3545 176.977 54.0123 176.732 53.582L174.995 54.5743ZM176.682 56.3227C177.443 56.7824 178.351 56.9766 179.344 56.9766V54.9766C178.602 54.9766 178.081 54.8309 177.716 54.6109L176.682 56.3227ZM194.566 32H195.566V31H194.566V32ZM194.566 59V60H195.566V59H194.566ZM190.348 59H189.348V60H190.348V59ZM190.348 32V31H189.348V32H190.348ZM193.828 48.7871L193.815 49.787L194.828 49.8V48.7871H193.828ZM192.457 48.7695L191.457 48.7606L191.448 49.7567L192.444 49.7694L192.457 48.7695ZM193.002 45.1309L192.051 44.8206L192.048 44.8297L193.002 45.1309ZM194.514 42.2305L193.729 41.6112L193.727 41.6126L194.514 42.2305ZM196.869 40.3145L197.307 41.2135L197.316 41.2089L196.869 40.3145ZM202.441 40.0156L202.116 40.9613L202.121 40.9628L202.441 40.0156ZM204.41 41.2637L203.688 41.9559L203.696 41.9633L204.41 41.2637ZM205.658 43.4785L204.702 43.7726L204.705 43.78L204.707 43.7873L205.658 43.4785ZM206.098 59V60H207.098V59H206.098ZM201.844 59H200.844V60H201.844V59ZM201.439 44.5684L200.537 44.9998L200.541 45.0077L200.545 45.0156L201.439 44.5684ZM200.297 43.4082L199.858 44.3068L199.867 44.3109L199.875 44.3149L200.297 43.4082ZM196.43 43.4961L195.968 42.6088L195.961 42.6127L196.43 43.4961ZM194.109 46.5723L193.148 46.2954L193.146 46.3029L193.144 46.3105L194.109 46.5723ZM193.566 32V59H195.566V32H193.566ZM194.566 58H190.348V60H194.566V58ZM191.348 59V32H189.348V59H191.348ZM190.348 33H194.566V31H190.348V33ZM193.841 47.7872L192.47 47.7696L192.444 49.7694L193.815 49.787L193.841 47.7872ZM193.457 48.7785C193.468 47.553 193.637 46.4398 193.956 45.432L192.048 44.8297C191.663 46.0485 191.47 47.3611 191.457 48.7606L193.457 48.7785ZM193.953 45.4411C194.284 44.4256 194.736 43.5659 195.3 42.8483L193.727 41.6126C193.002 42.5356 192.446 43.6095 192.051 44.8206L193.953 45.4411ZM195.299 42.8498C195.866 42.1308 196.534 41.59 197.307 41.2134L196.431 39.4155C195.376 39.9295 194.474 40.6661 193.729 41.6112L195.299 42.8498ZM197.316 41.2089C198.079 40.8273 198.938 40.6289 199.91 40.6289V38.6289C198.656 38.6289 197.487 38.8875 196.422 39.42L197.316 41.2089ZM199.91 40.6289C200.757 40.6289 201.488 40.7453 202.116 40.9613L202.766 39.0699C201.895 38.7703 200.939 38.6289 199.91 38.6289V40.6289ZM202.121 40.9628C202.732 41.1697 203.25 41.499 203.688 41.9559L205.132 40.5714C204.469 39.8799 203.674 39.3772 202.762 39.0684L202.121 40.9628ZM203.696 41.9633C204.113 42.3898 204.458 42.9787 204.702 43.7726L206.614 43.1844C206.296 42.1502 205.809 41.2625 205.125 40.564L203.696 41.9633ZM204.707 43.7873C204.958 44.5606 205.098 45.5512 205.098 46.7832H207.098C207.098 45.4136 206.944 44.2011 206.609 43.1697L204.707 43.7873ZM205.098 46.7832V59H207.098V46.7832H205.098ZM206.098 58H201.844V60H206.098V58ZM202.844 59V46.748H200.844V59H202.844ZM202.844 46.748C202.844 45.7519 202.699 44.8523 202.334 44.1211L200.545 45.0156C200.719 45.3626 200.844 45.9161 200.844 46.748H202.844ZM202.342 44.1369C201.992 43.4054 201.449 42.8414 200.719 42.5015L199.875 44.3149C200.152 44.4438 200.372 44.6532 200.537 44.9998L202.342 44.1369ZM200.736 42.5096C200.061 42.1801 199.286 42.0391 198.451 42.0391V44.0391C199.069 44.0391 199.525 44.1441 199.858 44.3068L200.736 42.5096ZM198.451 42.0391C197.554 42.0391 196.717 42.2195 195.968 42.6089L196.891 44.3833C197.314 44.1634 197.825 44.0391 198.451 44.0391V42.0391ZM195.961 42.6127C195.253 42.9885 194.657 43.5047 194.182 44.1528L195.795 45.3355C196.093 44.9289 196.458 44.6131 196.898 44.3794L195.961 42.6127ZM194.182 44.1528C193.719 44.7841 193.377 45.5022 193.148 46.2954L195.07 46.8491C195.24 46.2595 195.484 45.7589 195.795 45.3355L194.182 44.1528ZM193.144 46.3105C192.931 47.095 192.828 47.9219 192.828 48.7871H194.828C194.828 48.082 194.912 47.4323 195.075 46.834L193.144 46.3105Z" fill="black" mask="url(#path-3-outside-1_1_505)"/>
</svg>
